<svg version="1.0" xmlns="http://www.w3.org/2000/svg" width="17pt" viewBox="0 0 111.97 99"><g fill="#FEFE00"><path d="M42.585 1.5c-.4 1.1-2.1 1.5-6.7 1.5-6.9 0-12 2-14.4 5.6-1.3 2.1-7.5 25.3-7.5 28.3 0 .6 1.3 1.1 2.8 1.1 2.9 0 2.9-.1 5.6-12.3 3.2-14.7 4.1-15.9 12.6-16.5 5.4-.4 6.3-.2 7.6 1.7 1.4 1.9 2.4 2.1 13.4 2.1 11.1 0 12-.1 13.1-2.1 1-2 1.7-2.1 7.6-1.6 3.9.3 7.1 1.1 8.2 2.1 1.1 1 2.8 6.2 4.6 14.1 2.8 12.4 2.9 12.5 5.7 12.5 1.5 0 2.8-.4 2.8-.9 0-2.5-6.1-26.3-7.2-28-2.3-3.8-8.1-6.1-15.2-6.1-5.2 0-6.6-.3-6.6-1.5 0-1.3-2.1-1.5-12.9-1.5-10.5 0-13 .3-13.5 1.5zM3.485 43.2c-2.8 1.6-3.5 2.8-3.5 6.5 0 3.3 2.8 6.3 6 6.3 1.2 0 2.2 3.9 4.8 19.2 2.9 17.3 3.5 19.5 5.8 21.5 2.5 2.3 2.6 2.3 39.4 2.3s36.9 0 39.4-2.3c2.3-2 2.9-4.2 5.8-21.5 2.6-15.3 3.6-19.2 4.8-19.2 3.2 0 6-3 6-6.3 0-3.8-.7-5-3.7-6.6-3.1-1.6-101.9-1.5-104.8.1zm23.4 14.1c1.7 2.2 3.5 26.5 2.1 28.3-1.7 2-5.7 1.8-6.9-.4-1.1-2.1-2.6-25.4-1.8-27.6.8-1.9 5-2.1 6.6-.3zm22.1.6c.5 1.1 1 7.4 1 14 0 9.5-.3 12.3-1.6 13.5-1.8 1.9-4.5 2.1-6.2.4-1.7-1.7-1.7-26.9 0-28.6 1.8-1.8 5.6-1.4 6.8.7zm20.8-.7c1.7 1.7 1.7 26.9 0 28.6-1.8 1.8-5.6 1.4-6.8-.7-.5-1.1-1-7.2-1-13.6 0-6.4.5-12.5 1-13.6 1.2-2.1 5-2.5 6.8-.7zm21.4 12.6c-.1 7.3-.7 14.2-1.2 15.3-1.3 2.3-5.2 2.5-7 .4-1.5-1.8.3-26 2.2-28.2.6-.8 2.3-1.3 3.7-1.1l2.6.3-.3 13.3z"/></g></svg>